<?xml version="1.0" standalone="no"?>
<!DOCTYPE svg PUBLIC "-//W3C//DTD SVG 20010904//EN"
 "http://www.w3.org/TR/2001/REC-SVG-20010904/DTD/svg10.dtd">
<svg version="1.0" xmlns="http://www.w3.org/2000/svg"
 width="1466.000000pt" height="1466.000000pt" viewBox="0 0 1466.000000 1466.000000"
 preserveAspectRatio="xMidYMid meet">
<metadata>
Created by potrace 1.11, written by Peter Selinger 2001-2013
</metadata>
<g transform="translate(0.000000,1466.000000) scale(0.100000,-0.100000)"
fill="#000000" stroke="none">
<path d="M7915 14601 c-4 -8 -31 -84 -60 -170 -62 -183 -250 -728 -260 -753
-3 -9 -25 -29 -48 -44 -23 -15 -127 -86 -232 -159 -104 -72 -233 -161 -285
-197 -52 -36 -128 -88 -168 -116 -47 -32 -80 -49 -90 -45 -25 9 -381 248 -577
387 -11 8 -69 50 -130 93 l-110 78 -520 0 -520 0 -60 -46 c-81 -62 -691 -482
-735 -506 -19 -11 -36 -28 -38 -39 -5 -28 -91 -290 -172 -524 -39 -113 -84
-243 -100 -290 l-28 -85 -511 -3 c-471 -2 -514 -1 -539 15 -15 10 -29 20 -32
23 -7 8 -458 320 -634 438 -76 51 -140 91 -142 89 -4 -4 50 -169 173 -522 24
-71 66 -192 91 -268 l47 -138 -34 -27 c-19 -15 -73 -54 -121 -87 -468 -324
-629 -438 -649 -459 -22 -23 -75 -170 -266 -733 -58 -169 -60 -173 -90 -177
-16 -3 -245 -7 -507 -10 -263 -3 -483 -8 -489 -11 -6 -4 3 -17 23 -32 37 -27
409 -284 636 -438 166 -113 158 -103 223 -290 22 -66 85 -248 139 -405 54
-157 101 -293 105 -302 10 -25 -17 -45 -397 -306 -400 -273 -438 -301 -438
-321 0 -8 -12 -49 -26 -90 -237 -680 -276 -801 -271 -830 2 -14 27 -91 55
-171 28 -80 82 -235 120 -345 38 -110 81 -235 96 -277 15 -43 26 -84 24 -92
-3 -14 133 -111 517 -370 176 -119 296 -203 313 -219 10 -11 3 -38 -34 -143
-25 -71 -59 -167 -74 -214 -120 -354 -191 -554 -198 -559 -5 -3 -35 -27 -68
-52 -32 -25 -102 -75 -154 -111 -500 -340 -606 -415 -596 -425 2 -2 219 -6
482 -9 264 -3 494 -7 511 -10 18 -3 37 -13 42 -22 10 -19 72 -197 198 -572 92
-275 102 -299 135 -330 12 -11 181 -130 377 -265 196 -134 370 -256 386 -269
l30 -25 -91 -268 c-51 -147 -122 -353 -158 -457 -36 -105 -66 -194 -66 -198 0
-18 109 54 631 418 l207 144 505 0 c392 0 507 -3 514 -12 6 -7 31 -74 56 -148
25 -74 87 -254 137 -400 50 -146 97 -287 104 -315 10 -39 20 -53 42 -65 16 -8
63 -38 104 -67 142 -99 300 -208 447 -310 82 -56 172 -119 202 -139 l53 -38
515 -4 c489 -4 515 -3 534 14 66 59 785 544 807 544 10 0 50 -22 88 -48 38
-26 179 -124 314 -217 361 -248 405 -281 419 -312 11 -23 111 -313 290 -835
14 -43 28 -78 31 -78 3 0 65 174 139 388 184 535 181 526 194 539 9 8 152 12
525 15 360 2 515 6 520 14 12 20 774 544 790 544 9 0 270 -176 519 -352 223
-156 304 -209 313 -206 5 2 -45 163 -111 358 -66 195 -137 403 -157 461 l-36
107 21 68 c12 38 67 202 123 364 56 162 115 337 132 388 24 73 35 93 52 97 11
3 247 6 522 7 486 3 503 4 524 23 12 11 196 139 408 285 l385 265 18 60 c10
33 42 132 73 220 142 413 205 592 216 616 10 23 7 39 -25 125 -60 160 -275
803 -275 822 0 10 47 48 123 99 67 45 190 128 272 185 83 57 207 143 277 191
l127 88 188 5 c104 2 338 6 521 8 183 2 334 5 336 7 2 2 -133 99 -301 214
-470 324 -514 355 -520 372 -4 9 10 63 30 120 20 57 89 260 153 452 l117 348
-88 254 c-48 140 -117 343 -153 452 l-67 199 35 28 c19 16 207 147 416 292
210 145 380 265 378 268 -3 2 -237 6 -522 8 l-517 4 -182 126 c-100 70 -252
177 -338 237 -87 61 -181 126 -211 145 -85 55 -85 49 -10 271 37 107 77 223
90 259 13 36 41 117 61 180 21 63 51 150 67 192 l29 78 -24 62 c-14 35 -45
124 -70 198 -26 74 -78 227 -117 340 -40 113 -79 231 -88 264 -20 68 22 35
-475 376 -175 119 -327 226 -338 236 -20 18 -49 19 -537 22 -386 2 -518 6
-524 15 -4 7 -12 26 -17 42 -5 17 -57 170 -116 340 -59 171 -116 339 -127 375
-11 36 -27 80 -35 98 -19 44 -12 77 77 332 184 532 221 650 205 650 -8 0 -128
-82 -455 -310 -173 -120 -329 -227 -346 -236 -32 -17 -32 -17 -85 17 -30 19
-214 145 -409 281 l-355 248 -495 0 c-272 0 -500 4 -506 8 -17 11 -33 45 -66
141 -51 147 -208 601 -242 700 -21 63 -35 90 -41 82z m1285 -998 c0 -20 -18
-79 -35 -113 -7 -14 -23 -59 -35 -100 -13 -41 -27 -82 -32 -90 -4 -8 -35 -96
-68 -195 -85 -258 -108 -317 -122 -327 -7 -4 -219 -8 -470 -8 -410 0 -458 2
-458 16 0 17 44 157 60 189 6 11 21 54 34 95 49 151 137 405 145 421 5 9 14
35 21 57 20 77 -12 72 501 72 423 0 459 -1 459 -17z m840 -561 c0 -7 -182
-539 -267 -779 -8 -24 -19 -43 -24 -43 -10 0 -101 62 -464 313 -272 189 -269
186 -254 204 6 7 17 13 24 13 6 0 41 9 76 20 35 11 96 30 134 41 39 12 95 30
125 40 30 9 116 36 190 59 260 79 335 103 385 120 58 21 75 23 75 12z m-4729
-390 c28 -22 463 -321 597 -410 50 -35 92 -68 92 -75 0 -11 -37 -24 -220 -79
-36 -11 -90 -28 -120 -38 -30 -10 -89 -28 -130 -40 -41 -11 -84 -25 -95 -29
-11 -5 -54 -19 -95 -31 -65 -19 -192 -58 -296 -90 -63 -20 -73 -13 -53 37 6
15 67 190 135 388 68 198 126 366 129 373 6 17 28 15 56 -6z m3451 -645 c15
-45 57 -167 93 -272 37 -104 82 -237 101 -295 19 -58 41 -120 50 -138 8 -18
13 -41 9 -50 -3 -10 -64 -59 -136 -108 -71 -49 -159 -109 -194 -134 -35 -25
-100 -70 -145 -100 -44 -30 -121 -83 -170 -117 -49 -35 -96 -63 -104 -63 -17
0 -23 14 -155 405 -56 165 -113 329 -126 363 l-24 64 23 21 c13 12 69 54 125
92 56 39 202 140 324 225 122 85 234 163 247 172 44 30 53 23 82 -65z m-6347
-343 c28 -20 170 -119 318 -221 147 -102 270 -190 273 -195 12 -19 -35 -54
-336 -260 -69 -46 -182 -124 -252 -171 -69 -48 -129 -87 -132 -87 -8 0 -8 995
0 1003 8 8 63 -22 129 -69z m-955 -504 c0 -5 6 -10 13 -11 6 0 53 -29 102 -65
50 -35 99 -68 110 -73 12 -5 27 -16 34 -25 7 -9 19 -16 26 -16 7 0 18 -6 24
-13 11 -14 194 -142 230 -162 10 -6 27 -17 36 -25 9 -8 25 -19 35 -25 103 -61
142 -104 122 -136 -7 -10 -12 -28 -12 -38 0 -11 -4 -23 -10 -26 -5 -3 -10 -17
-10 -30 0 -13 -4 -27 -10 -30 -5 -3 -10 -17 -10 -30 0 -13 -4 -27 -10 -30 -5
-3 -10 -17 -10 -30 0 -13 -4 -27 -10 -30 -5 -3 -10 -17 -10 -30 0 -13 -4 -27
-10 -30 -5 -3 -10 -17 -10 -30 0 -13 -4 -27 -10 -30 -5 -3 -10 -16 -10 -29 0
-12 -3 -26 -6 -29 -7 -7 -27 -60 -69 -187 -14 -41 -30 -83 -35 -92 -6 -10 -10
-24 -10 -31 0 -18 -23 -67 -32 -67 -5 0 -8 5 -8 10 0 6 -5 10 -10 10 -6 0 -38
19 -71 43 -33 23 -69 47 -80 53 -10 6 -27 18 -37 27 -10 10 -21 17 -25 17 -6
0 -106 71 -169 119 -14 12 -30 21 -36 21 -5 0 -17 9 -27 20 -10 11 -22 20 -26
20 -4 0 -39 22 -76 50 -37 27 -83 60 -102 72 -60 41 -85 68 -72 81 6 6 11 21
11 33 0 13 5 26 10 29 6 3 10 15 10 26 0 10 4 27 9 37 5 9 15 37 22 62 7 25
16 49 21 54 4 6 8 20 8 32 0 13 5 26 10 29 6 3 10 16 10 29 0 12 4 26 8 32 5
5 21 50 37 99 15 50 31 95 35 100 4 6 25 65 46 132 21 68 42 123 47 123 4 0 7
-4 7 -10z m5355 -132 c106 -312 225 -667 225 -672 0 -3 -202 -6 -450 -6 -262
0 -450 4 -450 9 0 5 28 46 63 90 34 45 77 101 94 124 18 23 43 56 55 73 13 17
59 78 103 134 44 56 90 117 103 134 12 17 35 47 50 67 126 167 146 189 155
180 6 -6 29 -65 52 -133z m5075 -405 c0 -10 -34 -117 -76 -238 -41 -121 -95
-281 -120 -355 -25 -74 -48 -144 -53 -155 -5 -11 -12 -33 -17 -49 -5 -16 -13
-31 -19 -32 -5 -1 -46 47 -90 108 -44 60 -85 115 -92 122 -6 7 -24 31 -40 53
-15 23 -66 90 -113 149 -47 60 -93 120 -103 134 -23 33 -59 81 -134 178 -35
44 -63 85 -63 91 0 7 154 10 460 11 433 0 460 -1 460 -17z m-6835 -18 c22 -7
74 -23 115 -35 41 -12 100 -31 130 -40 30 -10 89 -28 130 -40 41 -13 100 -30
130 -40 30 -10 87 -28 125 -39 39 -12 115 -35 170 -52 55 -17 106 -33 113 -35
29 -8 7 -35 -75 -90 -49 -32 -126 -86 -173 -119 -47 -33 -92 -64 -101 -70 -22
-13 -57 -38 -160 -110 -47 -33 -94 -66 -105 -73 -10 -7 -32 -21 -49 -32 -16
-11 -32 -20 -35 -20 -8 0 -23 41 -86 225 -29 88 -76 225 -104 305 -28 80 -59
170 -69 200 -11 30 -23 64 -27 74 -6 16 -4 18 12 12 10 -4 37 -14 59 -21z
m-1295 -335 c22 -12 25 -18 180 -478 101 -298 121 -365 109 -373 -8 -5 -215
-9 -471 -9 -397 1 -459 3 -473 16 -8 9 -15 17 -15 19 0 4 -202 594 -236 690
-31 87 -43 133 -37 139 11 10 923 7 943 -4z m5999 -526 c1 -273 -1 -499 -4
-504 -3 -4 -39 15 -81 43 -41 29 -83 57 -92 62 -9 6 -42 28 -72 50 -56 41
-151 108 -194 135 -68 44 -219 152 -234 167 -7 7 -19 13 -26 13 -8 0 -19 6
-25 13 -14 17 -1 33 59 72 25 16 70 48 100 70 30 22 63 45 72 50 26 15 125 83
188 130 30 23 62 44 70 48 8 4 62 40 120 80 58 41 108 72 112 70 3 -2 7 -226
7 -499z m-3337 -146 c68 -45 125 -85 128 -88 5 -6 73 -54 354 -244 65 -45 125
-91 134 -104 14 -21 10 -37 -53 -230 -38 -114 -72 -214 -77 -222 -4 -8 -14
-35 -22 -60 -52 -156 -116 -334 -124 -342 -6 -6 -49 19 -113 63 -136 95 -216
150 -434 299 -99 67 -190 131 -201 142 -25 22 -23 37 20 158 15 41 58 167 96
280 38 113 86 250 105 305 20 55 38 106 40 113 3 6 9 12 14 12 5 0 65 -37 133
-82z m3507 -497 c47 -15 106 -34 131 -41 25 -7 54 -16 65 -20 24 -9 133 -42
195 -60 25 -7 54 -16 65 -20 24 -9 133 -42 195 -60 25 -7 54 -16 65 -20 11 -4
40 -13 65 -20 25 -6 53 -16 62 -21 10 -5 27 -9 37 -9 55 0 28 -28 -129 -134
-47 -31 -139 -94 -205 -139 -259 -178 -366 -249 -369 -246 -4 5 -73 203 -156
449 -33 96 -75 219 -94 273 -18 53 -29 97 -23 97 5 0 48 -13 96 -29z m-734
-341 c3 -5 -1 -29 -9 -52 -8 -24 -29 -83 -46 -133 -17 -49 -35 -99 -40 -110
-5 -11 -35 -96 -66 -190 -30 -93 -69 -209 -86 -257 l-31 -88 -463 0 c-281 0
-465 4 -469 10 -3 5 19 82 49 172 138 408 178 525 192 555 8 17 14 36 14 42 0
5 5 22 12 36 l11 25 463 0 c291 0 465 -4 469 -10z m-5155 -579 c0 -17 -4 -33
-10 -36 -5 -3 -10 -17 -10 -30 0 -13 -4 -27 -10 -30 -5 -3 -10 -16 -10 -29 0
-12 -3 -26 -7 -30 -9 -8 -22 -46 -84 -231 -27 -82 -54 -158 -59 -167 -6 -10
-10 -27 -10 -37 0 -11 -4 -23 -10 -26 -5 -3 -10 -17 -10 -30 0 -13 -4 -27 -10
-30 -5 -3 -10 -17 -10 -30 0 -13 -4 -27 -10 -30 -5 -3 -10 -15 -10 -26 0 -10
-6 -19 -13 -19 -14 0 -67 54 -67 68 0 5 -10 17 -21 28 -12 10 -29 31 -38 45
-20 32 -66 92 -108 140 -18 20 -33 40 -33 44 0 4 -11 21 -25 39 -48 59 -100
125 -135 172 -19 25 -48 64 -65 85 -16 21 -43 57 -60 79 -16 22 -40 54 -52 69
-13 16 -23 31 -23 35 0 3 203 5 450 6 l450 0 0 -29z m9720 27 c0 -2 29 -88 65
-193 36 -104 93 -271 127 -370 33 -99 69 -204 79 -234 11 -30 19 -56 19 -58 0
-1 -211 -3 -470 -3 l-470 0 -20 43 c-10 23 -71 197 -134 387 -63 190 -120 357
-126 372 -28 60 -45 58 465 58 256 0 465 -1 465 -2z m-8405 -437 c55 -38 143
-99 195 -135 52 -35 145 -99 205 -141 61 -42 133 -91 160 -110 61 -42 85 -61
85 -68 0 -3 -51 -40 -112 -82 -62 -42 -187 -128 -278 -190 -277 -191 -334
-230 -352 -237 -20 -8 -33 -1 -273 167 -82 57 -213 147 -290 199 -192 130
-203 140 -186 160 7 8 52 42 100 73 47 32 91 61 96 66 17 13 123 86 270 185
77 52 156 108 176 123 20 16 41 29 47 29 5 0 15 7 22 15 7 8 18 15 24 15 6 0
56 -31 111 -69z m-3436 -451 l1 -511 -22 12 c-13 6 -32 19 -43 29 -11 10 -75
55 -143 101 -67 46 -182 125 -255 175 -73 51 -164 114 -204 140 -40 27 -72 51
-72 54 0 3 32 27 72 53 40 27 146 100 237 162 91 63 210 144 265 182 55 37
113 77 128 90 16 13 30 23 32 23 1 0 3 -230 4 -510z m9742 492 c27 -17 95 -65
199 -139 33 -24 64 -43 68 -43 5 0 17 -9 27 -20 10 -11 24 -20 30 -20 7 0 18
-6 24 -13 10 -13 193 -142 229 -162 10 -6 26 -18 36 -28 10 -9 23 -17 30 -17
7 0 21 -9 31 -20 10 -11 24 -20 32 -20 7 0 13 -4 13 -10 0 -5 -6 -10 -13 -10
-8 0 -22 -9 -32 -20 -10 -11 -24 -20 -30 -20 -7 0 -19 -7 -26 -16 -7 -9 -22
-20 -34 -25 -11 -5 -38 -23 -60 -40 -50 -37 -112 -81 -136 -95 -11 -6 -27 -18
-37 -27 -10 -10 -23 -17 -29 -17 -5 0 -18 -9 -28 -20 -10 -11 -22 -20 -27 -20
-5 0 -38 -22 -73 -50 -35 -27 -68 -50 -73 -50 -5 0 -17 -9 -27 -20 -10 -11
-24 -20 -30 -20 -7 0 -18 -7 -25 -15 -18 -22 -77 -48 -93 -42 -8 3 -40 22 -72
44 -31 21 -66 43 -76 49 -10 6 -27 18 -36 26 -10 8 -56 41 -103 73 -47 33 -91
65 -98 72 -7 7 -19 13 -26 13 -7 0 -21 9 -31 20 -10 11 -22 20 -26 20 -4 0
-37 21 -73 48 -123 89 -186 132 -196 132 -17 0 -11 17 8 23 9 4 49 29 87 57
103 75 145 103 174 119 14 8 28 17 31 21 3 4 34 27 69 51 35 24 80 56 100 71
20 15 47 32 61 38 13 6 27 15 30 19 3 4 33 28 68 52 111 77 118 79 163 51z
m-7831 -730 c96 -285 121 -356 130 -377 12 -25 81 -234 85 -257 4 -17 -23 -18
-445 -18 -247 0 -451 3 -453 8 -5 7 98 149 215 297 84 106 181 233 193 254 6
9 37 50 70 91 33 41 78 99 100 127 21 29 41 50 44 48 2 -3 30 -81 61 -173z
m9297 141 c18 -21 52 -64 75 -96 24 -31 89 -117 145 -190 56 -72 111 -143 121
-157 77 -101 187 -243 220 -285 21 -27 42 -56 46 -63 6 -10 -79 -12 -456 -10
l-463 3 3 26 c1 15 57 188 123 385 66 198 126 374 132 392 5 17 13 32 16 32 3
0 20 -17 38 -37z m-4179 -600 c17 -49 58 -171 92 -273 34 -102 66 -189 71
-194 5 -6 9 -22 9 -36 0 -14 4 -30 9 -36 15 -16 72 -194 66 -204 -4 -6 -172
-10 -469 -10 l-464 0 -10 28 c-6 15 -16 43 -22 62 -7 19 -41 118 -77 220 -125
362 -173 511 -168 520 4 6 188 10 469 10 l463 0 31 -87z m-2178 -325 c7 -18
16 -42 20 -53 13 -31 81 -226 90 -260 4 -16 26 -80 48 -140 73 -201 112 -324
112 -347 -1 -17 -16 -33 -58 -61 -77 -51 -323 -221 -405 -279 -36 -27 -69 -48
-73 -48 -4 0 -14 -7 -23 -15 -9 -9 -38 -30 -66 -47 -27 -18 -63 -42 -78 -55
-16 -13 -34 -23 -41 -23 -7 0 -22 30 -35 68 -12 37 -31 86 -42 109 -10 24 -19
47 -19 52 0 12 -56 181 -110 331 -74 206 -91 262 -86 275 4 11 159 125 271
198 22 15 70 48 107 74 37 27 118 83 180 125 62 42 128 89 147 103 19 14 38
25 42 25 3 0 12 -15 19 -32z m3457 -48 c65 -44 179 -122 253 -174 74 -52 183
-127 243 -167 59 -40 107 -75 107 -79 0 -8 -79 -40 -98 -40 -7 0 -20 -4 -30
-9 -9 -5 -37 -15 -62 -21 -59 -17 -170 -51 -195 -60 -11 -4 -40 -13 -65 -20
-89 -25 -175 -52 -192 -61 -10 -5 -27 -9 -37 -9 -11 0 -23 -4 -26 -10 -3 -5
-15 -10 -27 -10 -21 0 -140 -36 -170 -51 -10 -5 -27 -9 -37 -9 -11 0 -23 -4
-26 -10 -3 -5 -15 -10 -25 -10 -17 0 -17 4 7 68 13 37 55 159 93 272 38 113
81 237 95 275 15 39 37 100 48 138 12 37 23 67 24 67 1 0 55 -36 120 -80z
m-468 -1350 c0 -280 -3 -510 -8 -510 -4 0 -16 9 -26 20 -10 11 -23 20 -30 20
-7 0 -20 9 -30 20 -10 11 -24 20 -31 20 -7 0 -17 6 -21 14 -4 7 -21 21 -38 30
-16 9 -50 32 -75 51 -25 19 -54 39 -65 44 -12 5 -27 16 -34 25 -7 9 -19 16
-26 16 -6 0 -20 9 -30 20 -10 11 -22 20 -27 20 -5 0 -37 21 -71 48 -35 26 -70
52 -78 57 -9 6 -36 23 -60 40 -24 16 -53 34 -64 40 -11 6 -20 17 -20 25 0 8 9
19 20 25 11 6 40 24 64 40 24 17 51 35 60 40 8 6 43 31 78 58 34 26 66 47 71
47 5 0 17 9 27 20 10 11 23 20 28 20 6 0 19 7 29 17 10 9 26 21 37 27 24 14
86 58 136 95 22 17 49 35 60 40 12 5 27 16 34 25 7 9 19 16 26 16 6 0 20 9 30
20 10 11 22 20 26 20 5 0 8 -229 8 -510z m-5719 293 c0 -10 -16 -63 -36 -118
-19 -55 -57 -167 -85 -250 -27 -82 -54 -159 -59 -170 -5 -11 -25 -67 -44 -125
-18 -58 -39 -117 -47 -133 l-12 -27 -454 0 c-249 1 -459 3 -467 6 -11 4 -11
12 -1 39 6 19 14 38 18 41 4 4 7 18 7 30 0 13 5 26 10 29 6 3 10 17 10 30 0
13 5 27 10 30 6 3 10 15 10 26 0 10 4 27 10 37 5 9 21 53 36 97 14 44 31 94
38 110 8 17 38 105 67 197 l54 168 468 0 c438 0 467 -1 467 -17z m-2060 -526
c33 -97 64 -185 69 -194 5 -10 25 -67 45 -128 19 -60 51 -157 71 -214 19 -57
35 -107 35 -111 0 -5 -12 -4 -27 1 -41 13 -138 43 -223 69 -41 13 -113 35
-160 50 -47 15 -105 33 -130 40 -51 14 -96 28 -125 40 -11 4 -40 13 -65 20
-78 22 -103 29 -184 56 -44 14 -86 29 -94 33 -14 8 80 76 483 350 77 52 162
112 190 132 27 21 51 36 52 35 2 -2 30 -82 63 -179z m3329 140 c19 -12 45 -29
57 -37 34 -22 186 -129 254 -177 32 -23 107 -75 167 -116 199 -136 204 -139
192 -154 -7 -7 -18 -13 -26 -13 -14 0 -116 -31 -168 -50 -11 -4 -40 -13 -65
-20 -62 -18 -171 -51 -195 -60 -11 -4 -40 -13 -65 -20 -62 -18 -171 -51 -195
-60 -11 -4 -40 -13 -65 -20 -92 -26 -176 -53 -193 -62 -27 -14 -31 -4 -13 34
9 18 25 62 36 98 11 36 24 74 30 85 5 11 43 124 85 250 42 127 80 239 85 250
5 11 14 37 21 58 7 20 15 37 19 37 3 0 20 -10 39 -23z m6302 -4 c6 -16 15 -36
20 -45 5 -10 9 -27 9 -37 0 -11 5 -23 10 -26 6 -3 10 -17 10 -30 0 -13 5 -27
10 -30 6 -3 10 -17 10 -30 0 -13 5 -27 10 -30 6 -3 10 -17 10 -30 0 -13 5 -27
10 -30 6 -3 10 -17 10 -30 0 -13 5 -27 10 -30 6 -3 10 -17 10 -30 0 -13 5 -27
10 -30 6 -3 10 -17 10 -30 0 -13 5 -27 10 -30 6 -3 10 -17 10 -30 0 -13 5 -27
10 -30 6 -3 10 -17 10 -30 0 -13 5 -27 10 -30 6 -3 10 -17 10 -30 0 -13 5 -27
10 -30 6 -3 10 -16 10 -29 0 -12 3 -26 7 -30 4 -3 12 -22 18 -40 11 -32 10
-35 -9 -40 -32 -9 -864 -7 -870 2 -2 4 9 25 25 47 15 22 36 51 46 65 9 14 31
41 48 61 48 59 89 110 107 138 10 14 34 46 53 71 19 25 43 56 52 70 9 14 29
39 43 56 84 103 117 146 163 214 14 19 32 41 41 49 9 7 16 20 16 27 0 24 20
15 31 -13z m-4595 -519 l21 -5 -22 -65 c-12 -35 -24 -67 -28 -71 -4 -3 -7 -17
-7 -29 0 -13 -4 -26 -10 -29 -5 -3 -10 -17 -10 -30 0 -13 -4 -27 -10 -30 -5
-3 -10 -17 -10 -30 0 -13 -4 -27 -10 -30 -5 -3 -10 -17 -10 -30 0 -13 -4 -27
-10 -30 -5 -3 -10 -17 -10 -30 0 -13 -4 -27 -10 -30 -5 -3 -10 -17 -10 -30 0
-13 -4 -27 -10 -30 -5 -3 -10 -17 -10 -30 0 -13 -4 -27 -10 -30 -5 -3 -10 -16
-10 -29 0 -12 -4 -26 -8 -31 -5 -6 -19 -43 -32 -83 -27 -83 -42 -101 -67 -81
-9 8 -23 26 -32 40 -9 14 -29 43 -46 64 -72 92 -92 117 -120 155 -16 23 -44
58 -61 78 -17 20 -35 44 -40 53 -5 9 -22 33 -39 54 -16 20 -41 51 -55 68 -14
18 -34 43 -43 57 -9 14 -32 44 -50 67 -89 116 -106 142 -94 147 17 6 837 7
863 0z m-4725 -377 c19 -13 124 -86 234 -162 110 -76 263 -181 340 -233 77
-52 144 -98 149 -103 4 -4 -25 -29 -65 -56 -41 -27 -177 -121 -304 -209 -126
-88 -264 -183 -306 -211 l-76 -51 -41 23 c-49 28 -628 422 -703 478 l-24 18
34 27 c31 25 124 89 466 324 66 45 149 103 185 130 36 26 68 47 71 48 3 0 21
-10 40 -23z m6095 -69 c66 -46 172 -119 236 -163 64 -44 130 -89 145 -100 16
-11 79 -55 141 -98 61 -43 112 -83 112 -90 0 -12 -12 -47 -175 -522 -53 -154
-99 -288 -102 -297 -7 -23 -28 -23 -61 0 -457 314 -666 459 -691 480 -30 25
-32 29 -21 57 7 17 70 201 141 410 71 209 131 386 134 393 2 6 8 12 13 12 5 0
63 -37 128 -82z m-3318 -1066 c18 -2 35 -8 38 -13 3 -5 16 -9 29 -9 13 0 27
-4 30 -10 3 -5 15 -10 26 -10 10 0 27 -4 37 -9 29 -14 87 -31 110 -31 11 0 24
-4 27 -10 3 -5 17 -10 30 -10 13 0 27 -4 30 -10 3 -5 15 -10 26 -10 10 0 27
-4 37 -9 9 -5 37 -15 62 -21 95 -26 116 -33 132 -41 10 -5 25 -9 33 -9 8 0 23
-4 33 -9 16 -8 37 -15 132 -41 25 -6 53 -16 62 -21 10 -5 27 -9 38 -9 32 0 23
-12 -38 -53 -31 -21 -124 -85 -207 -142 -82 -57 -197 -136 -255 -176 -58 -39
-129 -89 -158 -112 -29 -22 -54 -38 -55 -36 -2 2 -21 58 -42 124 -21 66 -44
131 -51 145 -7 14 -20 52 -30 85 -9 33 -21 67 -25 75 -18 33 -125 367 -121
379 2 7 11 9 21 5 9 -4 31 -9 49 -12z m4776 -608 c160 -460 197 -575 192 -592
-6 -16 -62 -57 -341 -249 -60 -42 -175 -121 -255 -177 -79 -56 -147 -102 -151
-104 -10 -5 -56 117 -144 383 -8 22 -45 132 -84 245 -63 185 -69 207 -56 226
8 12 58 52 112 90 54 37 118 82 143 99 345 241 485 333 493 326 4 -4 45 -115
91 -247z m-970 -321 c-16 -21 -34 -45 -41 -53 -33 -42 -113 -147 -157 -204
-26 -36 -55 -74 -65 -85 -9 -11 -31 -39 -49 -63 -18 -24 -79 -102 -135 -175
-56 -73 -118 -155 -138 -182 l-37 -50 -15 42 c-9 23 -38 107 -66 187 -27 80
-79 229 -115 333 -85 244 -91 268 -74 278 7 5 217 9 467 9 l453 0 -28 -37z"/>
</g>
</svg>
